# xmcd CD database file
# Copyright (C) 1993-2000  Ti Kan
#
# Track frame offsets:
#	150
#	14186
#	28399
#	42747
#	57409
#	70273
#	85269
#	101173
#	116704
#	131998
#	147233
#	161002
#	175393
#	189107
#	203574
#	218506
#	232226
#	245842
#	260968
#	275592
#
# Disc length: 3873 seconds
#
# Revision: 1
# Processed by: cddbd v1.5.1PL0 Copyright (c) Steve Scherf et al.
# Submitted via: xmcd 2.6 PL0
#
DISCID=480f1f14
DTITLE=Louis Armstrong - After You've Gone - A
DYEAR=1900
DGENRE=
TTITLE0=Cornet Chop Suey
TTITLE1=Jazz Lips
TTITLE2=Skid Dat-De-Dat
TTITLE3=Wild Man Blues
TTITLE4=Alligator Crawl
TTITLE5=Twelfth Street Rag
TTITLE6=Struttin' With Some Barbecue
TTITLE7=West End Blues
TTITLE8=Basin Street Blues
TTITLE9=Beau Koo Jack
TTITLE10=Muggles
TTITLE11=Tight Like this
TTITLE12=I Can't Give You Anything But Love
TTITLE13=Mahogany Hall Stomp
TTITLE14=Ain't Misbehavin
TTITLE15=After You've Gone
TTITLE16=St. Louis Blues
TTITLE17=Rockin'Chair
TTITLE18=Tiger Rag
TTITLE19=Body And Soul
EXTD=
EXTT0=
EXTT1=
EXTT2=
EXTT3=
EXTT4=
EXTT5=
EXTT6=
EXTT7=
EXTT8=
EXTT9=
EXTT10=
EXTT11=
EXTT12=
EXTT13=
EXTT14=
EXTT15=
EXTT16=
EXTT17=
EXTT18=
EXTT19=
PLAYORDER=
